<svg width="16" height="16" viewBox="0 0 16 16" fill="none" xmlns="http://www.w3.org/2000/svg">
<path d="M14.6719 13.3906C15.082 13.8281 15.082 14.5117 14.6719 14.9492C14.2344 15.3594 13.5508 15.3594 13.1133 14.9492L9.85938 11.668C8.73828 12.4062 7.37109 12.7891 5.89453 12.5977C3.37891 12.2422 1.35547 10.1914 1.02734 7.70312C0.5625 3.98438 3.70703 0.839844 7.42578 1.30469C9.91406 1.63281 11.9648 3.65625 12.3203 6.17188C12.5117 7.64844 12.1289 9.01562 11.3906 10.1094L14.6719 13.3906ZM3.16016 6.9375C3.16016 8.87891 4.71875 10.4375 6.66016 10.4375C8.57422 10.4375 10.1602 8.87891 10.1602 6.9375C10.1602 5.02344 8.57422 3.4375 6.66016 3.4375C4.71875 3.4375 3.16016 5.02344 3.16016 6.9375Z" fill="#999999"/>
</svg>
